<?xml version="1.0" encoding="utf-8"?>
<!-- Generator: Adobe Illustrator 15.0.0, SVG Export Plug-In . SVG Version: 6.00 Build 0)  -->
<!DOCTYPE svg PUBLIC "-//W3C//DTD SVG 1.1//EN" "http://www.w3.org/Graphics/SVG/1.1/DTD/svg11.dtd">
<svg version="1.1" id="icons" xmlns="http://www.w3.org/2000/svg" xmlns:xlink="http://www.w3.org/1999/xlink" x="0px" y="0px"
	 width="100px" height="69.95px" viewBox="0 0 100 69.95" enable-background="new 0 0 100 69.95" xml:space="preserve">
<path fill-rule="evenodd" clip-rule="evenodd" fill="none" stroke="#ED1C24" stroke-width="2.2464" stroke-miterlimit="10" d="
	M40.455,47.375c0-6.029-4.964-10.996-10.994-10.996c-6.148,0-11.113,4.967-11.113,10.996c0,6.148,4.965,11.111,11.113,11.111
	C35.49,58.487,40.455,53.524,40.455,47.375"/>
<path fill-rule="evenodd" clip-rule="evenodd" fill="none" stroke="#ED1C24" stroke-width="2.2464" stroke-miterlimit="10" d="
	M83.135,47.375c0-6.029-4.967-10.996-10.997-10.996c-6.147,0-11.113,4.967-11.113,10.996c0,6.148,4.966,11.111,11.113,11.111
	C78.168,58.487,83.135,53.524,83.135,47.375"/>
<path fill-rule="evenodd" clip-rule="evenodd" fill="#ED1C24" d="M51.689,17.7c-2.719-1.182-3.903-0.827-4.729,0.946
	c-0.827,1.773-3.784,7.093-4.375,8.278c-0.473,1.3-1.418,1.537-2.956,1.537h-5.91c-1.892,0-3.666,4.847,0.118,4.847h8.513
	c1.3,0,2.364-0.353,3.546-2.247c1.063-1.891,2.246-4.726,2.718-5.556c0.592-0.83,0.828-1.537,2.601-0.592
	c1.774,0.945,14.069,7.094,14.069,7.094s1.42-2.365,1.893-3.546c0.353-1.185,0.59-2.722-1.536-3.901
	C63.511,23.375,54.291,18.882,51.689,17.7"/>
<path fill-rule="evenodd" clip-rule="evenodd" fill="#ED1C24" d="M63.748,33.305c0,0-2.246-1.298-3.546-1.891
	c-1.184-0.591-2.957-0.709-4.258-0.119c-1.299,0.474-5.436,2.009-6.737,2.721c-1.301,0.592-3.311,2.246-2.247,4.964
	c1.065,2.721,4.258,10.641,5.439,13.006c1.299,2.482,7.33,1.889,5.083-2.127c-2.362-4.021-3.784-8.158-4.492-9.816
	c-0.712-1.654-0.712-1.771,1.301-2.717C56.301,36.379,63.748,33.305,63.748,33.305"/>
<path fill-rule="evenodd" clip-rule="evenodd" fill="#ED1C24" d="M44.596,16.873c0-2.01,1.537-3.663,3.546-3.663
	c2.009,0,3.665,1.653,3.665,3.663s-1.656,3.665-3.665,3.665C46.133,20.538,44.596,18.882,44.596,16.873"/>
<path fill-rule="evenodd" clip-rule="evenodd" fill="#ED1C24" d="M78.402,31.784l0.121-0.117v-2.956v-0.118
	c-0.238,0-0.474-0.119-0.713-0.119c-0.117,0-0.232,0.119-0.354,0.237c-0.119,0.235-0.354,0.709-0.354,1.538
	c0,0.945,0.235,1.418,0.354,1.536c0.121,0.12,0.236,0.237,0.354,0.237C78.05,31.904,78.165,31.904,78.402,31.784"/>
<polygon fill-rule="evenodd" clip-rule="evenodd" fill="#ED1C24" points="74.266,28.12 74.266,32.021 92.01,37.688 92.01,22.068 "/>
<path fill-rule="evenodd" clip-rule="evenodd" fill="#ED1C24" d="M33.723,31.784c0.236,0.12,0.353,0.12,0.59,0.237
	c0.119,0,0.237-0.117,0.355-0.237c0.117-0.117,0.355-0.59,0.355-1.536c0-0.829-0.238-1.302-0.355-1.538
	c-0.118-0.118-0.236-0.237-0.355-0.237c-0.237,0-0.472,0.119-0.708,0.119v0.118v2.956L33.723,31.784"/>
<polygon fill-rule="evenodd" clip-rule="evenodd" fill="#ED1C24" points="25.093,28.12 25.093,32.021 7.352,37.688 7.352,22.068 "/>
<path fill-rule="evenodd" clip-rule="evenodd" fill="#ED1C24" d="M43.393,17.501l8.57-3.377c0,0,1.424-0.496,0.275-1.726
	c-1.291-1.379-2.902-2.57-6.305-1.379c-3.402,1.19-4.119,4.239-3.881,5.494C42.247,17.527,42.292,17.945,43.393,17.501z"/>
</svg>
