<?xml version="1.0" encoding="utf-8"?>
<!-- Generator: Adobe Illustrator 15.0.0, SVG Export Plug-In . SVG Version: 6.00 Build 0)  -->
<!DOCTYPE svg PUBLIC "-//W3C//DTD SVG 1.1//EN" "http://www.w3.org/Graphics/SVG/1.1/DTD/svg11.dtd">
<svg version="1.1" id="icons" xmlns="http://www.w3.org/2000/svg" xmlns:xlink="http://www.w3.org/1999/xlink" x="0px" y="0px"
	 width="100px" height="75.076px" viewBox="0 0 100 75.076" enable-background="new 0 0 100 75.076" xml:space="preserve">
<path fill-rule="evenodd" clip-rule="evenodd" fill="none" stroke="#ED1C24" stroke-width="2.9297" stroke-miterlimit="10" d="
	M39.468,53.849c0-7.861-6.478-14.336-14.342-14.336c-8.015,0-14.49,6.475-14.49,14.336c0,8.018,6.475,14.492,14.49,14.492
	C32.991,68.341,39.468,61.866,39.468,53.849"/>
<path fill-rule="evenodd" clip-rule="evenodd" fill="none" stroke="#ED1C24" stroke-width="2.9297" stroke-miterlimit="10" d="
	M95.11,53.849c0-7.861-6.478-14.336-14.339-14.336c-8.021,0-14.495,6.475-14.495,14.336c0,8.018,6.475,14.492,14.495,14.492
	C88.633,68.341,95.11,61.866,95.11,53.849"/>
<path fill-rule="evenodd" clip-rule="evenodd" fill="#ED1C24" d="M54.101,15.149c-3.544-1.544-5.087-1.079-6.167,1.233
	c-1.08,2.313-4.917,9.252-5.688,10.797c-0.618,1.69-1.851,2.001-3.853,2.001h-7.71c-2.467,0-4.78,6.324,0.152,6.324h11.102
	c1.693,0,3.072-0.465,4.61-2.931c1.386-2.469,2.925-6.168,3.542-7.248c0.774-1.08,1.081-2.003,3.393-0.771
	c2.313,1.232,18.349,9.25,18.349,9.25s1.851-3.086,2.466-4.625c0.464-1.543,0.77-3.546-2.004-5.089
	C69.521,22.552,57.491,16.691,54.101,15.149"/>
<path fill-rule="evenodd" clip-rule="evenodd" fill="#ED1C24" d="M69.827,35.504c0,0-2.929-1.699-4.626-2.471
	c-1.539-0.769-3.853-0.925-5.548-0.155c-1.697,0.619-7.094,2.626-8.789,3.549c-1.697,0.771-4.316,2.931-2.93,6.479
	c1.386,3.539,5.551,13.873,7.092,16.959c1.693,3.238,9.559,2.461,6.629-2.777c-3.082-5.24-4.936-10.643-5.858-12.799
	c-0.923-2.158-0.923-2.311,1.694-3.543C60.113,39.513,69.827,35.504,69.827,35.504"/>
<path fill-rule="evenodd" clip-rule="evenodd" fill="#ED1C24" d="M36.541,14.07c0-2.622,2.007-4.778,4.629-4.778
	c2.614,0,4.762,2.156,4.762,4.778c0,2.621-2.148,4.779-4.762,4.779C38.547,18.849,36.541,16.691,36.541,14.07"/>
<path fill-rule="evenodd" clip-rule="evenodd" fill="#ED1C24" d="M23.447,30.572c-0.1-0.33-0.207-0.445-0.306-0.773
	c-0.107-0.114-0.325-0.116-0.544-0.122c-0.216-0.008-0.877,0.193-1.771,1.043c-0.783,0.742-1.016,1.39-1.135,1.714
	c-0.005,0.222-0.012,0.439,0.095,0.552c0.212,0.219,0.537,0.338,0.749,0.563l0.112-0.107l2.794-2.655L23.447,30.572"/>
<line fill-rule="evenodd" clip-rule="evenodd" fill="none" stroke="#ED1C24" stroke-width="0.9766" stroke-miterlimit="10" x1="19.468" y1="27.774" x2="12.012" y2="13.598"/>
<line fill-rule="evenodd" clip-rule="evenodd" fill="none" stroke="#ED1C24" stroke-width="0.9766" stroke-miterlimit="10" x1="17.648" y1="29.664" x2="3.482" y2="22.708"/>
<line fill-rule="evenodd" clip-rule="evenodd" fill="none" stroke="#ED1C24" stroke-width="0.9766" stroke-miterlimit="10" x1="21.827" y1="26.123" x2="20.929" y2="13.986"/>
<line fill-rule="evenodd" clip-rule="evenodd" fill="none" stroke="#ED1C24" stroke-width="0.9766" stroke-miterlimit="10" x1="16.869" y1="32.023" x2="4.648" y2="32.592"/>
<line fill-rule="evenodd" clip-rule="evenodd" fill="none" stroke="#ED1C24" stroke-width="0.9766" stroke-miterlimit="10" x1="5.695" y1="15.771" x2="11.509" y2="21.777"/>
<path fill-rule="evenodd" clip-rule="evenodd" fill="#ED1C24" d="M34.975,14.889l11.161-4.404c0,0,1.857-0.646,0.356-2.251
	c-1.673-1.798-3.765-3.351-8.201-1.798c-4.438,1.552-5.375,5.528-5.063,7.164C33.48,14.924,33.54,15.469,34.975,14.889z"/>
</svg>
