<?xml version="1.0" encoding="utf-8"?>
<!-- Generator: Adobe Illustrator 15.0.0, SVG Export Plug-In . SVG Version: 6.00 Build 0)  -->
<!DOCTYPE svg PUBLIC "-//W3C//DTD SVG 1.1//EN" "http://www.w3.org/Graphics/SVG/1.1/DTD/svg11.dtd">
<svg version="1.1" id="icons" xmlns="http://www.w3.org/2000/svg" xmlns:xlink="http://www.w3.org/1999/xlink" x="0px" y="0px"
	 width="100px" height="58.096px" viewBox="0 0 100 58.096" enable-background="new 0 0 100 58.096" xml:space="preserve">
<g>
	<path fill="#ED1C24" d="M42.837,34.437l-4.032-6.772c-0.362-0.607-1.097-0.848-1.734-0.61c-0.157-0.094-0.337-0.152-0.532-0.152
		h-4.058c-0.156-0.043-0.321-0.073-0.494-0.073h-5.869l-4.439-7.157c-0.44-0.714-1.267-1.028-2.042-0.857
		c-0.176-0.137-0.396-0.223-0.638-0.223h-0.839h-5.903h-0.84c-0.223,0-0.43,0.073-0.601,0.192c-0.734-0.11-1.501,0.21-1.917,0.888
		l-5,8.066c-0.559,0.897-0.28,2.081,0.619,2.636c0.316,0.2,0.664,0.293,1.009,0.293c0.642,0,1.269-0.325,1.633-0.912l3.22-5.194
		v7.875c0,0.037,0.002,0.078,0.006,0.107V47.78c0,1.063,0.859,1.924,1.918,1.924c1.062,0,1.918-0.861,1.918-1.924V35.274h2.133
		V47.78c0,1.063,0.859,1.924,1.917,1.924c1.062,0,1.919-0.861,1.919-1.924V25.36c0-0.271-0.056-0.528-0.158-0.757v-0.305
		l3.949,6.368h6.564V47.78c0,0.795,0.646,1.439,1.44,1.439c0.793,0,1.438-0.645,1.438-1.439v-8.893h1.318v8.893
		c0,0.795,0.643,1.439,1.438,1.439s1.439-0.645,1.439-1.439V31.302l2.744,4.605c0.271,0.457,0.748,0.705,1.239,0.705
		c0.25,0,0.503-0.068,0.735-0.199C43.021,36.005,43.246,35.12,42.837,34.437z"/>
	<path fill="#ED1C24" d="M15.274,16.111c2.252,0,4.079-1.825,4.079-4.077c0-2.255-1.827-4.074-4.079-4.074
		c-2.25,0-4.076,1.819-4.076,4.074C11.199,14.286,13.025,16.111,15.274,16.111z"/>
	<path fill="#ED1C24" d="M34.097,25.583c1.524,0,2.759-1.236,2.759-2.762c0-1.52-1.235-2.755-2.759-2.755
		c-1.521,0-2.756,1.236-2.756,2.755C31.341,24.348,32.576,25.583,34.097,25.583z"/>
</g>
<g>
	<path fill="#ED1C24" d="M91.878,44.36v-1.779l-4.09-2.311l-4.864,0.039l-2.457-1.939c-0.338-0.266-0.83-0.211-1.097,0.127
		c-0.267,0.34-0.212,0.828,0.127,1.098l2.313,1.83v3.76l-1.958,3.482c-0.213,0.375-0.081,0.848,0.295,1.061
		c0.123,0.068,0.252,0.104,0.384,0.104c0.273,0,0.538-0.143,0.681-0.396l1.987-3.533l1.948,3.695c0.14,0.264,0.41,0.416,0.691,0.416
		c0.124,0,0.248-0.031,0.365-0.09c0.379-0.201,0.525-0.67,0.325-1.055l-1.78-3.375l5.578-0.031v4.135
		c0,0.434,0.35,0.785,0.782,0.785c0.43,0,0.78-0.352,0.78-0.785v-5.119C91.889,44.435,91.884,44.403,91.878,44.36z"/>
	<path fill="#ED1C24" d="M88.461,39.595l1.952-2.924c0,0,0.426-2.08,1.221-2.08c0.792,0,0.914,0.795,0.914,1.344
		c0,0.547-0.062,1.221,0.307,1.281c0.364,0.059,0.913,1.221,1.34,1.221c0.428,0,2.015,0.73,2.015,1.588
		c0,0.852-0.55,1.4-1.221,1.461c-0.672,0.063-1.83-0.492-2.074-0.303c-0.244,0.184-0.795,0.85-0.795,0.85L88.461,39.595z"/>
	<path fill="#ED1C24" d="M78.285,29.064c0.346-0.854,0.011-1.852-0.812-2.315c-1.963-1.096-6.269-5.908-8.618-8.795
		c-0.718-1.218-1.895-2.094-3.567-2.094c-0.761,0-1.56,0.192-2.414,0.574c-2.143,0.357-4.011,2.03-4.261,2.265l-6.029,6.146
		c-0.564,0.577-0.557,1.505,0.021,2.072c0.285,0.278,0.654,0.418,1.022,0.418c0.381,0,0.762-0.149,1.048-0.442l5.678-5.789
		l-1.239,8.145c-0.093,0.629,0.137,1.241,0.586,1.655l-0.229,7.697l-3.414,8.537c-0.38,0.955,0.081,2.035,1.032,2.414
		c0.226,0.094,0.46,0.131,0.688,0.131c0.736,0,1.434-0.439,1.725-1.166l3.658-9.148l0.17-5.682l3.834,5.703l2.299,8.844
		c0.218,0.836,0.97,1.391,1.795,1.391c0.154,0,0.31-0.023,0.469-0.061c0.991-0.26,1.586-1.271,1.328-2.262l-2.46-9.453l-3.438-5.121
		c0.082-0.152,0.144-0.314,0.183-0.492l1.777-8.278c2.089,2.322,4.722,5.013,6.544,6.032c0.286,0.162,0.599,0.235,0.905,0.235
		c0.466,0,0.923-0.181,1.27-0.507l9.675,9.906l0.56-0.549L78.285,29.064z"/>
	<path fill="#ED1C24" d="M71.641,11.673c0,1.965-1.596,3.562-3.564,3.562c-1.968,0-3.561-1.596-3.561-3.562
		c0-1.971,1.593-3.561,3.561-3.561C70.045,8.112,71.641,9.702,71.641,11.673z"/>
</g>
</svg>
