<?xml version="1.0" encoding="utf-8"?>
<!-- Generator: Adobe Illustrator 15.0.0, SVG Export Plug-In . SVG Version: 6.00 Build 0)  -->
<!DOCTYPE svg PUBLIC "-//W3C//DTD SVG 1.1//EN" "http://www.w3.org/Graphics/SVG/1.1/DTD/svg11.dtd">
<svg version="1.1" id="icons" xmlns="http://www.w3.org/2000/svg" xmlns:xlink="http://www.w3.org/1999/xlink" x="0px" y="0px"
	 width="100px" height="41.072px" viewBox="0 0 100 41.072" enable-background="new 0 0 100 41.072" xml:space="preserve">
<path fill-rule="evenodd" clip-rule="evenodd" fill="#ED1C24" d="M44.735,14.774c0-1.241-0.963-2.206-2.205-2.206
	c-1.101,0-2.064,0.965-2.064,2.206c0,1.239,0.963,2.203,2.064,2.203C43.772,16.977,44.735,16.013,44.735,14.774"/>
<path fill-rule="evenodd" clip-rule="evenodd" fill="#ED1C24" d="M47.903,29.57v-9.641c0-0.415-0.274-0.829-0.686-0.829H34.519
	c-0.415,0-0.691-0.273-0.691-0.688V12.49l-0.137-0.136v-0.277c0-0.411-0.412-0.824-0.827-0.824c-0.411,0-0.826,0.413-0.826,0.824
	v8.126c0,0.413,0.416,0.69,0.826,0.69h3.746c0.416,0,0.689,0.412,0.689,0.688v7.988H47.903z"/>
<path fill-rule="evenodd" clip-rule="evenodd" fill="#ED1C24" d="M24.458,14.777c0-1.238-0.965-2.203-2.203-2.203
	c-1.103,0-2.066,0.964-2.066,2.203c0,1.242,0.963,2.206,2.066,2.206C23.494,16.983,24.458,16.019,24.458,14.777"/>
<path fill-rule="evenodd" clip-rule="evenodd" fill="#ED1C24" d="M65.745,14.687c0-1.239-0.965-2.204-2.202-2.204
	c-1.105,0-2.067,0.965-2.067,2.204c0,1.24,0.962,2.203,2.067,2.203C64.78,16.89,65.745,15.927,65.745,14.687"/>
<path fill-rule="evenodd" clip-rule="evenodd" fill="#ED1C24" d="M27.626,29.575v-9.641c0-0.414-0.275-0.828-0.828-0.828
	c-0.688,0-16.939,0.138-19.969,0.138H6.553H6.278c-0.413,0-0.827,0.413-0.827,0.828c0,0.412,0.414,0.824,0.827,0.824h10.054
	c0.414,0,0.689,0.276,0.689,0.689v7.988H27.626z"/>
<path fill-rule="evenodd" clip-rule="evenodd" fill="#ED1C24" d="M76.836,14.861c0,1.241,0.962,2.205,2.201,2.205
	c1.104,0,2.068-0.964,2.068-2.205c0-1.24-0.965-2.203-2.068-2.203C77.798,12.658,76.836,13.621,76.836,14.861"/>
<path fill-rule="evenodd" clip-rule="evenodd" fill="#ED1C24" d="M84.271,29.658v-7.988c0-0.412,0.276-0.688,0.689-0.688h10.055
	c0.414,0,0.824-0.413,0.824-0.825c0-0.415-0.41-0.829-0.824-0.829h-0.276h-0.276c-3.029,0-19.279-0.136-19.97-0.136
	c-0.55,0-0.826,0.415-0.826,0.827v9.64H84.271z"/>
<path fill-rule="evenodd" clip-rule="evenodd" fill="#ED1C24" d="M68.775,29.621V20.12c0-0.415-0.414-0.828-0.826-0.828H54.654
	c-0.827,0-1.516,0.413-1.516,1.514l-0.136,7.576c0,0.412,0.412,0.827,0.824,0.827c0.415,0,0.827-0.415,0.827-0.827v-6.611
	c0-0.274,0.274-0.687,0.688-0.687h2.139c0.413,0,0.688,0.274,0.688,0.687v7.85H68.775z"/>
</svg>
