<?xml version="1.0" encoding="utf-8"?>
<!-- Generator: Adobe Illustrator 15.0.0, SVG Export Plug-In . SVG Version: 6.00 Build 0)  -->
<!DOCTYPE svg PUBLIC "-//W3C//DTD SVG 1.1//EN" "http://www.w3.org/Graphics/SVG/1.1/DTD/svg11.dtd">
<svg version="1.1" id="icons" xmlns="http://www.w3.org/2000/svg" xmlns:xlink="http://www.w3.org/1999/xlink" x="0px" y="0px"
	 width="100px" height="98.952px" viewBox="0 0 100 98.952" enable-background="new 0 0 100 98.952" xml:space="preserve">
<path fill-rule="evenodd" clip-rule="evenodd" fill="#ED1C24" d="M31.305,82.65l-13.446-1.863c-0.622,0-1.039-0.412-1.039-1.033
	V25.533c0-0.415,0.417-0.829,0.621-1.035c0,0,6.212-3.104,14.072-3.104c7.863,0,14.07,3.104,14.07,3.104
	c0.417,0.206,0.625,0.621,0.625,1.035v54.221c0,0.621-0.417,1.033-1.037,1.033L31.718,82.65H31.305z"/>
<path fill-rule="evenodd" clip-rule="evenodd" fill="#E1ECF8" d="M31.513,73.132l-10.346-1.45c-0.415,0-0.621-0.413-0.621-0.617
	V45.81c0-0.204,0.207-0.414,0.414-0.619c0,0,4.553-2.275,10.553-2.275c6.002,0,10.554,2.275,10.554,2.275
	c0.208,0.205,0.413,0.415,0.413,0.619v25.255c0,0.204-0.205,0.617-0.619,0.617l-10.143,1.45H31.513z M31.513,71.682l9.517-1.446
	V46.432c-1.24-0.622-4.963-2.069-9.517-2.069c-4.55,0-8.275,1.447-9.313,2.069v23.804L31.513,71.682z"/>
<path fill-rule="evenodd" clip-rule="evenodd" fill="#ED1C24" d="M72.178,28.913V16.085c0-0.622,0.41-1.037,1.031-1.037
	c0.417,0,1.037,0.415,1.037,1.037v12.828c0,0.621-0.62,1.035-1.037,1.035C72.588,29.948,72.178,29.534,72.178,28.913"/>
<path fill-rule="evenodd" clip-rule="evenodd" fill="#ED1C24" d="M62.243,40.914v-8.896c0-1.241,0.829-2.065,1.862-2.065
	c1.24,0,2.071,0.824,2.071,2.065v7.039h7.032c1.037,0,2.071,0.823,2.071,1.857c0,1.248-1.034,2.072-2.071,2.072h-9.104
	C63.072,42.986,62.243,42.162,62.243,40.914"/>
<path fill-rule="evenodd" clip-rule="evenodd" fill="#ED1C24" d="M69.694,34.912c0-2.066,1.654-3.722,3.515-3.722
	c2.071,0,3.728,1.656,3.728,3.722c0,1.866-1.656,3.521-3.728,3.521C71.349,38.433,69.694,36.778,69.694,34.912"/>
<path fill-rule="evenodd" clip-rule="evenodd" fill="#ED1C24" d="M72.178,63.889V50.853c0-0.413,0.41-1.036,1.031-1.036
	c0.417,0,1.037,0.623,1.037,1.036v13.036c0,0.415-0.62,1.04-1.037,1.04C72.588,64.929,72.178,64.304,72.178,63.889"/>
<path fill-rule="evenodd" clip-rule="evenodd" fill="#ED1C24" d="M71.142,40.914c0-1.034,0.825-1.857,2.067-1.857h6.83v-7.039
	c0-1.241,1.033-2.065,2.068-2.065c1.036,0,2.069,0.824,2.069,2.065v8.896c0,1.248-1.033,2.072-2.069,2.072h-8.898
	C71.967,42.986,71.142,42.162,71.142,40.914"/>
<path fill-rule="evenodd" clip-rule="evenodd" fill="#ED1C24" d="M63.072,45.674v-4.551c0-1.658,1.242-2.69,2.688-2.69h14.691
	c1.452,0,2.692,1.032,2.692,2.69v4.551c0,1.451-1.24,2.697-2.692,2.697H65.76C64.314,48.372,63.072,47.125,63.072,45.674"/>
<path fill-rule="evenodd" clip-rule="evenodd" fill="#ED1C24" d="M63.276,26.016V22.5c0-0.618,0.415-1.035,0.829-1.035h18.002
	c0.623,0,1.036,0.417,1.036,1.035v3.517c0,0.622-0.413,1.035-1.036,1.035c-0.618,0-1.035-0.413-1.035-1.035v-2.48H65.14v2.48
	c0,0.622-0.413,1.035-1.034,1.035C63.691,27.051,63.276,26.638,63.276,26.016"/>
<rect x="72.609" y="80.168" fill-rule="evenodd" clip-rule="evenodd" fill="#ED1C24" width="1.45" height="2.691"/>
<rect x="72.609" y="74.378" fill-rule="evenodd" clip-rule="evenodd" fill="#ED1C24" width="1.45" height="2.894"/>
<rect x="72.609" y="68.582" fill-rule="evenodd" clip-rule="evenodd" fill="#ED1C24" width="1.45" height="2.896"/>
</svg>
