<?xml version="1.0" encoding="utf-8"?>
<!-- Generator: Adobe Illustrator 15.0.0, SVG Export Plug-In . SVG Version: 6.00 Build 0)  -->
<!DOCTYPE svg PUBLIC "-//W3C//DTD SVG 1.1//EN" "http://www.w3.org/Graphics/SVG/1.1/DTD/svg11.dtd">
<svg version="1.1" id="icons" xmlns="http://www.w3.org/2000/svg" xmlns:xlink="http://www.w3.org/1999/xlink" x="0px" y="0px"
	 width="100px" height="100px" viewBox="0 0 100 100" enable-background="new 0 0 100 100" xml:space="preserve">
<path fill-rule="evenodd" clip-rule="evenodd" fill="#ED1C24" d="M21.917,58.124V44.861c0-0.637,0.428-1.064,1.067-1.064
	c0.428,0,1.071,0.427,1.071,1.064v13.263c0,0.635-0.643,1.063-1.071,1.063C22.344,59.187,21.917,58.759,21.917,58.124"/>
<path fill-rule="evenodd" clip-rule="evenodd" fill="#ED1C24" d="M11.654,70.517v-9.193c0-1.282,0.856-2.137,1.924-2.137
	c1.283,0,2.137,0.854,2.137,2.137v7.275h7.269c1.071,0,2.14,0.847,2.14,1.918c0,1.282-1.069,2.137-2.14,2.137h-9.406
	C12.511,72.653,11.654,71.799,11.654,70.517"/>
<path fill-rule="evenodd" clip-rule="evenodd" fill="#ED1C24" d="M19.351,64.318c0-2.144,1.709-3.851,3.633-3.851
	c2.139,0,3.849,1.707,3.849,3.851c0,1.927-1.71,3.636-3.849,3.636C21.061,67.954,19.351,66.245,19.351,64.318"/>
<path fill-rule="evenodd" clip-rule="evenodd" fill="#ED1C24" d="M22.712,94.38V80.907c0-0.427,0.427-1.074,1.068-1.074
	c0.428,0,1.07,0.647,1.07,1.074V94.38c0,0.427-0.642,1.062-1.07,1.062C23.139,95.441,22.712,94.807,22.712,94.38"/>
<path fill-rule="evenodd" clip-rule="evenodd" fill="#ED1C24" d="M20.844,70.517c0-1.071,0.856-1.918,2.14-1.918h7.053v-7.275
	c0-1.282,1.069-2.137,2.138-2.137c1.07,0,2.139,0.854,2.139,2.137v9.193c0,1.282-1.069,2.137-2.139,2.137h-9.19
	C21.701,72.653,20.844,71.799,20.844,70.517"/>
<path fill-rule="evenodd" clip-rule="evenodd" fill="#ED1C24" d="M12.511,75.432v-4.704c0-1.702,1.282-2.773,2.778-2.773h15.177
	c1.498,0,2.779,1.071,2.779,2.773v4.704c0,1.501-1.281,2.78-2.779,2.78H15.289C13.792,78.212,12.511,76.933,12.511,75.432"/>
<path fill-rule="evenodd" clip-rule="evenodd" fill="#ED1C24" d="M12.722,55.129v-3.636c0-0.643,0.429-1.073,0.856-1.073h18.596
	c0.643,0,1.07,0.43,1.07,1.073v3.636c0,0.64-0.427,1.067-1.07,1.067c-0.641,0-1.068-0.428-1.068-1.067v-2.563h-16.46v2.563
	c0,0.64-0.426,1.067-1.068,1.067C13.151,56.196,12.722,55.769,12.722,55.129"/>
<path fill-rule="evenodd" clip-rule="evenodd" fill="#ED1C24" d="M71.133,68.957L57.24,67.03c-0.641,0-1.072-0.414-1.072-1.064
	V9.961c0-0.427,0.432-0.859,0.642-1.068c0,0,6.416-3.204,14.538-3.204c8.121,0,14.534,3.204,14.534,3.204
	c0.43,0.209,0.644,0.641,0.644,1.068v56.004c0,0.65-0.428,1.064-1.068,1.064L71.56,68.957H71.133z"/>
<path fill-rule="evenodd" clip-rule="evenodd" fill="#E1ECF8" d="M71.348,59.123l-10.689-1.494c-0.427,0-0.641-0.427-0.641-0.635
	V30.907c0-0.206,0.214-0.427,0.43-0.633c0,0,4.703-2.358,10.9-2.358c6.198,0,10.901,2.358,10.901,2.358
	c0.215,0.206,0.427,0.427,0.427,0.633v26.087c0,0.208-0.212,0.635-0.638,0.635L71.56,59.123H71.348z M71.348,57.629l9.834-1.501
	V31.552c-1.281-0.646-5.131-2.133-9.834-2.133c-4.7,0-8.549,1.487-9.62,2.133v24.576L71.348,57.629z"/>
<path fill-rule="evenodd" clip-rule="evenodd" fill="#ED1C24" d="M37.703,45.568c-0.427-0.641-0.427-1.493,0.213-1.927
	l14.102-10.043c0.641-0.424,1.495-0.424,1.922,0.209c0.428,0.646,0.214,1.503-0.427,1.927L39.628,45.99
	C38.986,46.422,38.131,46.209,37.703,45.568"/>
</svg>
